<svg width="38" height="38" viewBox="0 0 38 38" fill="none" xmlns="http://www.w3.org/2000/svg">
<path d="M16.5404 7.50363C17.9842 5.62225 23.3551 9.61782 23.3551 9.61782C23.3551 9.61782 25.6266 10.0425 27.4438 12.5798C29.261 15.1171 29.7154 15.5399 29.7154 17.2314C29.7154 18.9229 30.3558 19.625 29.7154 21.8832C28.9245 24.6718 28.2206 22.4342 28.8067 25.2662C29.3102 27.6987 28.5298 27.4321 26.5352 29.0721C24.3422 30.8752 21.9921 29.495 21.9921 29.495L17.9034 29.0722C16.9947 29.777 16.5404 28.2246 14.7232 27.8017C11.6901 27.0958 10.1802 27.5198 10.1802 24.8415L8.36291 21.8832L7 17.6525C7 17.6525 8.68105 15.4039 9.27154 13.8466C10.336 11.0392 11.3872 12.0024 12.4517 9.19494C13.0422 7.63764 15.5092 8.84747 16.5404 7.50363Z" fill="url(#paint0_linear_745_16)"/>
<circle cx="21" cy="17" r="2" fill="white"/>
<defs>
<linearGradient id="paint0_linear_745_16" x1="9.49997" y1="7.00012" x2="20.1715" y2="31.8605" gradientUnits="userSpaceOnUse">
<stop offset="0.271875" stop-color="#3EAD3A"/>
<stop offset="1" stop-color="#017AAF"/>
</linearGradient>
</defs>
</svg>
