<svg width="38" height="38" viewBox="0 0 38 38" fill="none" xmlns="http://www.w3.org/2000/svg">
<path d="M20.2136 8.25416C18.5285 7.67952 17.0982 8.18479 16.2624 8.7275C15.86 8.98872 15.4892 9.30055 15.0751 9.54264C13.495 10.4664 11.3635 10.157 9.69773 10.9156C8.85391 11.2998 8.05535 12.1514 7.57297 13.7964C6.21861 18.4149 7.57297 17.0294 8.47587 19.8005C9.37878 22.5716 8.47587 22.5716 9.83023 24.8809C11.1846 27.1901 12.5389 25.8046 13.4418 26.2664C14.3448 26.7283 14.3447 27.652 14.7962 29.0375C15.1574 30.146 17.3544 30.731 18.4078 30.8849C19.7622 31.1928 22.5612 31.0697 22.9223 28.1138C23.1991 25.8486 24.9077 23.8003 26.3005 22.5511C27.0181 21.9075 27.7782 21.2822 28.2049 20.4179C28.8036 19.2054 29.2948 17.447 28.7912 15.6438C27.8883 12.4108 26.0825 11.949 24.2767 11.949C22.4709 11.949 22.9223 9.17787 20.2136 8.25416Z" stroke="url(#paint0_linear_745_13)" stroke-linecap="round"/>
<path d="M19.4087 12.1547C18.3446 11.8076 17.4402 12.1078 16.9067 12.4352C16.6425 12.5973 16.3987 12.7936 16.1282 12.9449C15.1239 13.5064 13.8034 13.3198 12.7419 13.7639C12.1957 13.9925 11.6764 14.5113 11.3646 15.5282C10.5028 18.3395 11.3646 17.4961 11.9392 19.1829C12.5138 20.8697 11.9392 20.8697 12.8011 22.2753C13.6629 23.6809 14.5248 22.8376 15.0994 23.1187C15.6739 23.3998 15.6739 23.9621 15.9612 24.8055C16.191 25.4802 17.5892 25.8363 18.2595 25.93C19.1214 26.1174 20.9026 26.0424 21.1324 24.2432C21.2829 23.0653 22.0982 21.9838 22.8852 21.2196C23.5735 20.5512 24.3778 19.9533 24.7184 19.0563C24.9779 18.373 25.1208 17.5214 24.8671 16.6527C24.2926 14.6849 23.1434 14.4037 21.9943 14.4037C20.8451 14.4037 21.1324 12.717 19.4087 12.1547Z" fill="url(#paint1_linear_745_13)"/>
<defs>
<linearGradient id="paint0_linear_745_13" x1="11.0631" y1="11.6948" x2="19.951" y2="27.2815" gradientUnits="userSpaceOnUse">
<stop offset="0.271875" stop-color="#3EAD3A"/>
<stop offset="1" stop-color="#017AAF"/>
</linearGradient>
<linearGradient id="paint1_linear_745_13" x1="11.0001" y1="13.3124" x2="17.5445" y2="25.8734" gradientUnits="userSpaceOnUse">
<stop offset="0.271875" stop-color="#3EAD3A"/>
<stop offset="1" stop-color="#017AAF"/>
</linearGradient>
</defs>
</svg>
