<svg width="38" height="38" viewBox="0 0 38 38" fill="none" xmlns="http://www.w3.org/2000/svg">
<ellipse cx="10.1879" cy="9.33084" rx="10.1879" ry="9.33084" transform="matrix(0.933903 0.357527 -0.314444 0.949276 7.86816 7)" fill="url(#paint0_linear_745_2)"/>
<path d="M33.3666 18.058C34.1894 21.7839 31.4136 25.8006 26.9902 26.9297C22.5669 28.0588 18.4077 25.8122 17.5849 22.0863C16.762 18.3605 19.5378 14.3438 23.9612 13.2147C28.3845 12.0856 32.5437 14.3322 33.3666 18.058Z" fill="url(#paint1_linear_745_2)" stroke="white"/>
<path d="M21.2385 19.4673C21.7885 18.7621 22.5003 17.7374 23.7925 17.0873C25.0847 16.4371 26.2791 16.3601 27.3116 16.6025" stroke="white" stroke-linecap="round"/>
<path d="M9.10596 14.7547C9.9259 14.167 11.0191 13.2857 12.659 12.9918C14.2989 12.6979 15.6655 12.9917 16.7587 13.5794" stroke="white" stroke-linecap="round"/>
<path d="M24.3153 23.8088C25.3751 24.1404 27.3005 23.7314 28.0671 23.0236C28.8337 22.3158 29.67 21.3576 30.0913 19.9643" stroke="white" stroke-linecap="round"/>
<path d="M7.90711 19.7987C8.31197 22.4082 9.8542 23.5706 11.4456 24.5161C13.0371 25.4615 16.1506 26.135 17.9183 25.6755" stroke="white" stroke-linecap="round"/>
<defs>
<linearGradient id="paint0_linear_745_2" x1="-3.68934e-05" y1="0.373276" x2="15.6988" y2="14.6579" gradientUnits="userSpaceOnUse">
<stop offset="0.271875" stop-color="#3EAD3A"/>
<stop offset="1" stop-color="#017AAF"/>
</linearGradient>
<linearGradient id="paint1_linear_745_2" x1="15.5429" y1="15.1581" x2="30.4602" y2="23.9139" gradientUnits="userSpaceOnUse">
<stop offset="0.271875" stop-color="#3EAD3A"/>
<stop offset="1" stop-color="#017AAF"/>
</linearGradient>
</defs>
</svg>
