<svg width="38" height="38" viewBox="0 0 38 38" fill="none" xmlns="http://www.w3.org/2000/svg">
<path d="M30.4229 16.0213C31.0306 17.3924 30.373 19.0312 28.9277 19.6718C27.4824 20.3123 25.8266 19.6989 25.2189 18.3278C24.6112 16.9567 25.2688 15.3179 26.7141 14.6774C28.1594 14.0368 29.8153 14.6502 30.4229 16.0213Z" fill="url(#paint0_linear_745_12)" stroke="white" stroke-width="0.5"/>
<path d="M24.7513 25.0576C25.5496 26.8588 24.6844 29.0067 22.7925 29.8453C20.9006 30.6838 18.7281 29.8822 17.9298 28.081C17.1314 26.2798 17.9967 24.1318 19.8886 23.2933C21.7805 22.4548 23.953 23.2564 24.7513 25.0576Z" fill="url(#paint1_linear_745_12)" stroke="white" stroke-width="0.5"/>
<path d="M19.327 23.7343C20.1253 25.5356 19.2601 27.6835 17.3682 28.522C15.4763 29.3606 13.3038 28.559 12.5054 26.7577C11.7071 24.9565 12.5723 22.8086 14.4643 21.9701C16.3562 21.1315 18.5287 21.9331 19.327 23.7343Z" fill="url(#paint2_linear_745_12)" stroke="white" stroke-width="0.5"/>
<path d="M30.5314 20.6324C31.5203 22.8638 30.4475 25.5209 28.109 26.5573C25.7704 27.5938 23.0813 26.604 22.0923 24.3727C21.1034 22.1414 22.1761 19.4843 24.5147 18.4478C26.8533 17.4113 29.5424 18.4011 30.5314 20.6324Z" fill="url(#paint3_linear_745_12)" stroke="white" stroke-width="0.5"/>
<path d="M21.2999 17.2701C22.2889 19.5015 21.2161 22.1586 18.8775 23.195C16.5389 24.2315 13.8498 23.2417 12.8609 21.0104C11.8719 18.7791 12.9447 16.122 15.2833 15.0855C17.6218 14.049 20.311 15.0388 21.2999 17.2701Z" fill="url(#paint4_linear_745_12)" stroke="white" stroke-width="0.5"/>
<path d="M14.6034 17.4424C15.4017 19.2436 14.5365 21.3915 12.6445 22.23C10.7526 23.0686 8.58014 22.267 7.78181 20.4657C6.98349 18.6645 7.84871 16.5166 9.74063 15.6781C11.6326 14.8395 13.805 15.6411 14.6034 17.4424Z" fill="url(#paint5_linear_745_12)" stroke="white" stroke-width="0.5"/>
<path d="M22.4637 11.1633C23.6433 13.8248 22.363 16.991 19.5778 18.2255C16.7925 19.4599 13.5868 18.2819 12.4072 15.6205C11.2276 12.959 12.5079 9.79279 15.2932 8.55834C18.0784 7.32389 21.2841 8.50187 22.4637 11.1633Z" fill="url(#paint6_linear_745_12)" stroke="white" stroke-width="0.5"/>
<ellipse cx="16.447" cy="10.2679" rx="0.899302" ry="0.865995" transform="rotate(-23.9035 16.447 10.2679)" fill="#F4F4F4"/>
<path d="M27.3703 11.3183C28.264 13.3346 27.295 15.7371 25.1797 16.6746C23.0645 17.6121 20.6337 16.7164 19.74 14.7001C18.8464 12.6838 19.8154 10.2813 21.9306 9.34381C24.0459 8.4063 26.4767 9.30199 27.3703 11.3183Z" fill="url(#paint7_linear_745_12)" stroke="white" stroke-width="0.5"/>
<path d="M25.3974 17.7825C26.1004 19.3687 25.339 21.262 23.6704 22.0016C22.0018 22.7411 20.0876 22.0336 19.3846 20.4474C18.6816 18.8613 19.4431 16.9679 21.1117 16.2284C22.7803 15.4888 24.6944 16.1963 25.3974 17.7825Z" fill="url(#paint8_linear_745_12)" stroke="white" stroke-width="0.5"/>
<path d="M22.7348 22.6902C23.4378 24.2764 22.6764 26.1697 21.0078 26.9093C19.3392 27.6488 17.425 26.9413 16.722 25.3552C16.019 23.769 16.7805 21.8756 18.4491 21.1361C20.1177 20.3965 22.0318 21.104 22.7348 22.6902Z" fill="url(#paint9_linear_745_12)" stroke="white" stroke-width="0.5"/>
<path d="M16.6742 22.1152C17.4725 23.9164 16.6073 26.0644 14.7153 26.9029C12.8234 27.7414 10.6509 26.9398 9.85261 25.1386C9.05429 23.3374 9.91951 21.1894 11.8114 20.3509C13.7034 19.5124 15.8758 20.314 16.6742 22.1152Z" fill="url(#paint10_linear_745_12)" stroke="white" stroke-width="0.5"/>
<ellipse cx="24.7047" cy="11.102" rx="0.830696" ry="0.799929" transform="rotate(-23.9035 24.7047 11.102)" fill="#F4F4F4"/>
<ellipse cx="21.7013" cy="17.5578" rx="0.884615" ry="0.851852" transform="rotate(-23.9035 21.7013 17.5578)" fill="#F4F4F4"/>
<ellipse cx="26.742" cy="24.6983" rx="0.830486" ry="0.799728" transform="rotate(-23.9035 26.742 24.6983)" fill="#F4F4F4"/>
<ellipse cx="11.5328" cy="22.996" rx="0.884615" ry="0.851852" transform="rotate(-23.9035 11.5328 22.996)" fill="#F4F4F4"/>
<path d="M14.3222 12.4422C15.0252 14.0283 14.2638 15.9217 12.5952 16.6612C10.9266 17.4008 9.01243 16.6933 8.30942 15.1071C7.60642 13.5209 8.36786 11.6276 10.0365 10.888C11.7051 10.1485 13.6192 10.856 14.3222 12.4422Z" fill="url(#paint11_linear_745_12)" stroke="white" stroke-width="0.5"/>
<ellipse cx="9.35313" cy="13.7131" rx="0.884615" ry="0.851852" transform="rotate(-23.9035 9.35313 13.7131)" fill="#F4F4F4"/>
<defs>
<linearGradient id="paint0_linear_745_12" x1="23.7738" y1="15.3487" x2="28.2968" y2="20.2201" gradientUnits="userSpaceOnUse">
<stop offset="0.271875" stop-color="#3EAD3A"/>
<stop offset="1" stop-color="#017AAF"/>
</linearGradient>
<linearGradient id="paint1_linear_745_12" x1="18.2737" y1="23.8488" x2="21.7835" y2="30.4129" gradientUnits="userSpaceOnUse">
<stop offset="0.271875" stop-color="#3EAD3A"/>
<stop offset="1" stop-color="#017AAF"/>
</linearGradient>
<linearGradient id="paint2_linear_745_12" x1="13.2737" y1="21.8488" x2="15.7289" y2="28.5931" gradientUnits="userSpaceOnUse">
<stop offset="0.271875" stop-color="#3EAD3A"/>
<stop offset="1" stop-color="#017AAF"/>
</linearGradient>
<linearGradient id="paint3_linear_745_12" x1="21.2741" y1="19.8487" x2="27.6702" y2="26.7879" gradientUnits="userSpaceOnUse">
<stop offset="0.271875" stop-color="#3EAD3A"/>
<stop offset="1" stop-color="#017AAF"/>
</linearGradient>
<linearGradient id="paint4_linear_745_12" x1="13.7736" y1="16.3489" x2="17.1032" y2="21.8584" gradientUnits="userSpaceOnUse">
<stop offset="0.271875" stop-color="#3EAD3A"/>
<stop offset="1" stop-color="#017AAF"/>
</linearGradient>
<linearGradient id="paint5_linear_745_12" x1="7.77394" y1="16.3487" x2="12.616" y2="21.8168" gradientUnits="userSpaceOnUse">
<stop offset="0.271875" stop-color="#3EAD3A"/>
<stop offset="1" stop-color="#017AAF"/>
</linearGradient>
<linearGradient id="paint6_linear_745_12" x1="12.7737" y1="7.34876" x2="17.1433" y2="17.6736" gradientUnits="userSpaceOnUse">
<stop offset="0.271875" stop-color="#3EAD3A"/>
<stop offset="1" stop-color="#017AAF"/>
</linearGradient>
<linearGradient id="paint7_linear_745_12" x1="19.2739" y1="9.84891" x2="23.6995" y2="16.6907" gradientUnits="userSpaceOnUse">
<stop offset="0.271875" stop-color="#3EAD3A"/>
<stop offset="1" stop-color="#017AAF"/>
</linearGradient>
<linearGradient id="paint8_linear_745_12" x1="19.7737" y1="16.8488" x2="23.1032" y2="22.3583" gradientUnits="userSpaceOnUse">
<stop offset="0.271875" stop-color="#3EAD3A"/>
<stop offset="1" stop-color="#017AAF"/>
</linearGradient>
<linearGradient id="paint9_linear_745_12" x1="17.274" y1="21.3487" x2="20.6035" y2="26.8583" gradientUnits="userSpaceOnUse">
<stop offset="0.271875" stop-color="#3EAD3A"/>
<stop offset="1" stop-color="#017AAF"/>
</linearGradient>
<linearGradient id="paint10_linear_745_12" x1="10.2738" y1="21.3489" x2="14.0613" y2="26.9972" gradientUnits="userSpaceOnUse">
<stop offset="0.271875" stop-color="#3EAD3A"/>
<stop offset="1" stop-color="#017AAF"/>
</linearGradient>
<linearGradient id="paint11_linear_745_12" x1="8.77425" y1="11.8488" x2="11.7847" y2="16.7616" gradientUnits="userSpaceOnUse">
<stop offset="0.271875" stop-color="#3EAD3A"/>
<stop offset="1" stop-color="#017AAF"/>
</linearGradient>
</defs>
</svg>
