<svg width="38" height="38" viewBox="0 0 38 38" fill="none" xmlns="http://www.w3.org/2000/svg">
<g clip-path="url(#clip0_745_10)">
<path d="M16.7841 8.25622C17.1368 6.35352 19.8632 6.35352 20.2159 8.25622C20.4682 9.61729 22.1288 10.1569 23.133 9.20404C24.5367 7.87204 26.7423 9.47453 25.9093 11.2212C25.3134 12.4706 26.3398 13.8832 27.7122 13.7026C29.6308 13.4501 30.4732 16.043 28.7726 16.9664C27.5562 17.6269 27.5562 19.3731 28.7726 20.0336C30.4732 20.957 29.6308 23.5499 27.7122 23.2974C26.3398 23.1168 25.3134 24.5294 25.9093 25.7788C26.7423 27.5255 24.5367 29.128 23.133 27.796C22.1288 26.8431 20.4682 27.3827 20.2159 28.7438C19.8632 30.6465 17.1368 30.6465 16.7841 28.7438C16.5318 27.3827 14.8712 26.8431 13.867 27.796C12.4633 29.128 10.2577 27.5255 11.0907 25.7788C11.6866 24.5294 10.6602 23.1168 9.28782 23.2974C7.36925 23.5499 6.52677 20.957 8.22735 20.0336C9.44384 19.3731 9.44384 17.6269 8.22735 16.9664C6.52677 16.043 7.36925 13.4501 9.28782 13.7026C10.6602 13.8832 11.6866 12.4706 11.0907 11.2212C10.2577 9.47453 12.4633 7.87204 13.867 9.20404C14.8712 10.1569 16.5318 9.61729 16.7841 8.25622Z" fill="url(#paint0_linear_745_10)"/>
<ellipse cx="21.8514" cy="20.0626" rx="3.41043" ry="2.78238" transform="rotate(-48.6293 21.8514 20.0626)" fill="white"/>
<path d="M12.8093 16.1404C12.9512 15.878 13.4404 15.6816 14.0022 15.9854C14.564 16.2892 14.6674 16.8061 14.5254 17.0685C14.3835 17.331 13.8944 17.5274 13.3326 17.2235C12.7708 16.9197 12.6674 16.4029 12.8093 16.1404Z" fill="white"/>
<path d="M12.8093 16.1404C12.9512 15.878 13.4404 15.6816 14.0022 15.9854C14.564 16.2892 14.6674 16.8061 14.5254 17.0685C14.3835 17.331 13.8944 17.5274 13.3326 17.2235C12.7708 16.9197 12.6674 16.4029 12.8093 16.1404Z" stroke="white"/>
<path d="M12.8093 16.1404C12.9512 15.878 13.4404 15.6816 14.0022 15.9854C14.564 16.2892 14.6674 16.8061 14.5254 17.0685C14.3835 17.331 13.8944 17.5274 13.3326 17.2235C12.7708 16.9197 12.6674 16.4029 12.8093 16.1404Z" stroke="white"/>
<path d="M12.8093 16.1404C12.9512 15.878 13.4404 15.6816 14.0022 15.9854C14.564 16.2892 14.6674 16.8061 14.5254 17.0685C14.3835 17.331 13.8944 17.5274 13.3326 17.2235C12.7708 16.9197 12.6674 16.4029 12.8093 16.1404Z" stroke="white"/>
<ellipse cx="20.595" cy="12.8819" rx="1.47551" ry="1.20379" transform="rotate(-58.3813 20.595 12.8819)" fill="white"/>
<ellipse cx="14.3471" cy="22.3215" rx="1.50593" ry="1.35201" transform="rotate(-13.1371 14.3471 22.3215)" fill="white"/>
<path d="M21.5705 21.397C21.9839 21.2543 22.5197 20.6908 22.617 20.3024C22.7143 19.9141 22.7809 19.4345 22.6207 18.9189" stroke="url(#paint1_linear_745_10)" stroke-linecap="round"/>
</g>
<defs>
<linearGradient id="paint0_linear_745_10" x1="7.99995" y1="9.99998" x2="18.9074" y2="30.9349" gradientUnits="userSpaceOnUse">
<stop offset="0.271875" stop-color="#3EAD3A"/>
<stop offset="1" stop-color="#017AAF"/>
</linearGradient>
<linearGradient id="paint1_linear_745_10" x1="23" y1="18.5" x2="22.1079" y2="22.1486" gradientUnits="userSpaceOnUse">
<stop offset="0.271875" stop-color="#3EAD3A"/>
<stop offset="1" stop-color="#017AAF"/>
</linearGradient>
<clipPath id="clip0_745_10">
<rect width="38" height="38" fill="white"/>
</clipPath>
</defs>
</svg>
