<svg width="44" height="44" viewBox="0 0 44 44" fill="none" xmlns="http://www.w3.org/2000/svg">
<path d="M21.3295 35.36C20.5919 35.36 19.9604 35.1145 19.4351 34.6233C18.9098 34.1322 18.6472 33.5417 18.6472 32.852H24.0119C24.0119 33.5417 23.7492 34.1322 23.2239 34.6233C22.6986 35.1145 22.0672 35.36 21.3295 35.36ZM10.6001 31.598V29.09H13.2825V20.312C13.2825 18.5773 13.8413 17.036 14.9589 15.6879C16.0766 14.3399 17.5295 13.4568 19.3177 13.0388V12.161C19.3177 11.6385 19.5133 11.1944 19.9045 10.8287C20.2957 10.4629 20.7707 10.28 21.3295 10.28C21.8883 10.28 22.3633 10.4629 22.7545 10.8287C23.1457 11.1944 23.3413 11.6385 23.3413 12.161V12.5686C23.0954 13.0284 22.9166 13.4986 22.8048 13.9793C22.693 14.46 22.6483 14.9512 22.6707 15.4528C22.4472 15.411 22.2292 15.3744 22.0169 15.3431C21.8045 15.3117 21.5754 15.296 21.3295 15.296C19.8542 15.296 18.5913 15.7872 17.5407 16.7695C16.4901 17.7518 15.9648 18.9326 15.9648 20.312V29.09H26.6942V21.0331C27.0966 21.2003 27.5269 21.3309 27.9851 21.425C28.4433 21.519 28.9072 21.566 29.3766 21.566V29.09H32.0589V31.598H10.6001ZM29.3766 19.058C28.2589 19.058 27.3089 18.6923 26.5266 17.9608C25.7442 17.2293 25.353 16.341 25.353 15.296C25.353 14.251 25.7442 13.3628 26.5266 12.6313C27.3089 11.8998 28.2589 11.534 29.3766 11.534C30.4942 11.534 31.4442 11.8998 32.2266 12.6313C33.0089 13.3628 33.4001 14.251 33.4001 15.296C33.4001 16.341 33.0089 17.2293 32.2266 17.9608C31.4442 18.6923 30.4942 19.058 29.3766 19.058Z" fill="#F4F4F4"/>
<rect x="15" y="22.6001" width="12" height="7.92" fill="#F4F4F4"/>
<path fill-rule="evenodd" clip-rule="evenodd" d="M27.3175 21.3323C24.5897 20.4408 22.6002 17.6619 22.6002 14.3719C22.6002 13.9798 22.6285 13.5949 22.6829 13.2196C22.0863 13.0246 21.4543 12.9199 20.8002 12.9199C17.1551 12.9199 14.2002 16.1703 14.2002 20.1799C14.2002 24.1895 17.1551 27.4399 20.8002 27.4399C24.0888 27.4399 26.8156 24.7942 27.3175 21.3323Z" fill="#F4F4F4"/>
<path d="M33.6667 14.9C33.6667 17.3301 31.6769 19.3 29.2223 19.3C26.7677 19.3 24.7778 17.3301 24.7778 14.9C24.7778 12.4699 26.7677 10.5 29.2223 10.5C31.6769 10.5 33.6667 12.4699 33.6667 14.9Z" fill="#FA1515"/>
</svg>
