<svg width="38" height="38" viewBox="0 0 38 38" fill="none" xmlns="http://www.w3.org/2000/svg">
<path fill-rule="evenodd" clip-rule="evenodd" d="M19 38C29.4934 38 38 29.4934 38 19C38 8.50659 29.4934 0 19 0C8.50659 0 0 8.50659 0 19C0 29.4934 8.50659 38 19 38ZM16.75 12.25C16.75 11.0074 17.7574 10 19 10C20.2426 10 21.25 11.0074 21.25 12.25V16.75H25.75C26.9926 16.75 28 17.7574 28 19C28 20.2426 26.9926 21.25 25.75 21.25H21.25V25.75C21.25 26.9926 20.2426 28 19 28C17.7574 28 16.75 26.9926 16.75 25.75V21.25H12.25C11.0074 21.25 10 20.2426 10 19C10 17.7574 11.0074 16.75 12.25 16.75H16.75V12.25Z" fill="white"/>
</svg>
