<svg width="38" height="38" viewBox="0 0 38 38" fill="none" xmlns="http://www.w3.org/2000/svg">
<path d="M30.4229 16.0214C31.0306 17.3926 30.373 19.0313 28.9277 19.6719C27.4824 20.3125 25.8266 19.6991 25.2189 18.3279C24.6112 16.9568 25.2688 15.3181 26.7141 14.6775C28.1594 14.0369 29.8153 14.6503 30.4229 16.0214Z" fill="url(#paint0_linear_201_110)" stroke="white" stroke-width="0.5"/>
<path d="M24.7513 25.0577C25.5496 26.8589 24.6844 29.0069 22.7925 29.8454C20.9006 30.6839 18.7281 29.8823 17.9298 28.0811C17.1314 26.2799 17.9967 24.1319 19.8886 23.2934C21.7805 22.4549 23.953 23.2565 24.7513 25.0577Z" fill="url(#paint1_linear_201_110)" stroke="white" stroke-width="0.5"/>
<path d="M19.327 23.7345C20.1253 25.5357 19.2601 27.6836 17.3682 28.5222C15.4763 29.3607 13.3038 28.5591 12.5054 26.7579C11.7071 24.9566 12.5723 22.8087 14.4643 21.9702C16.3562 21.1317 18.5287 21.9332 19.327 23.7345Z" fill="url(#paint2_linear_201_110)" stroke="white" stroke-width="0.5"/>
<path d="M30.5314 20.6325C31.5203 22.8639 30.4475 25.521 28.109 26.5575C25.7704 27.594 23.0813 26.6042 22.0923 24.3728C21.1034 22.1415 22.1761 19.4844 24.5147 18.4479C26.8533 17.4114 29.5424 18.4012 30.5314 20.6325Z" fill="url(#paint3_linear_201_110)" stroke="white" stroke-width="0.5"/>
<path d="M21.2999 17.2702C22.2889 19.5016 21.2161 22.1587 18.8775 23.1952C16.5389 24.2316 13.8498 23.2419 12.8609 21.0105C11.8719 18.7792 12.9447 16.1221 15.2833 15.0856C17.6218 14.0491 20.311 15.0389 21.2999 17.2702Z" fill="url(#paint4_linear_201_110)" stroke="white" stroke-width="0.5"/>
<path d="M14.6034 17.4425C15.4017 19.2437 14.5365 21.3916 12.6445 22.2302C10.7526 23.0687 8.58014 22.2671 7.78181 20.4659C6.98349 18.6646 7.84871 16.5167 9.74063 15.6782C11.6326 14.8397 13.805 15.6412 14.6034 17.4425Z" fill="url(#paint5_linear_201_110)" stroke="white" stroke-width="0.5"/>
<path d="M22.4637 11.1634C23.6433 13.8249 22.363 16.9911 19.5778 18.2256C16.7925 19.46 13.5868 18.2821 12.4072 15.6206C11.2276 12.9592 12.5079 9.79291 15.2932 8.55846C18.0784 7.32401 21.2841 8.50199 22.4637 11.1634Z" fill="url(#paint6_linear_201_110)" stroke="white" stroke-width="0.5"/>
<ellipse cx="16.447" cy="10.268" rx="0.899302" ry="0.865995" transform="rotate(-23.9035 16.447 10.268)" fill="#F4F4F4"/>
<path d="M27.3703 11.3184C28.264 13.3347 27.295 15.7372 25.1797 16.6747C23.0645 17.6122 20.6337 16.7165 19.74 14.7002C18.8464 12.684 19.8154 10.2814 21.9306 9.34393C24.0459 8.40643 26.4767 9.30211 27.3703 11.3184Z" fill="url(#paint7_linear_201_110)" stroke="white" stroke-width="0.5"/>
<path d="M25.3974 17.7826C26.1004 19.3688 25.339 21.2621 23.6704 22.0017C22.0018 22.7412 20.0876 22.0337 19.3846 20.4476C18.6816 18.8614 19.4431 16.968 21.1117 16.2285C22.7803 15.489 24.6944 16.1964 25.3974 17.7826Z" fill="url(#paint8_linear_201_110)" stroke="white" stroke-width="0.5"/>
<path d="M22.7348 22.6903C23.4378 24.2765 22.6764 26.1699 21.0078 26.9094C19.3392 27.6489 17.425 26.9415 16.722 25.3553C16.019 23.7691 16.7805 21.8758 18.4491 21.1362C20.1177 20.3967 22.0318 21.1042 22.7348 22.6903Z" fill="url(#paint9_linear_201_110)" stroke="white" stroke-width="0.5"/>
<path d="M16.6742 22.1153C17.4725 23.9166 16.6073 26.0645 14.7153 26.903C12.8234 27.7415 10.6509 26.9399 9.85261 25.1387C9.05429 23.3375 9.91951 21.1896 11.8114 20.351C13.7034 19.5125 15.8758 20.3141 16.6742 22.1153Z" fill="url(#paint10_linear_201_110)" stroke="white" stroke-width="0.5"/>
<ellipse cx="24.7047" cy="11.1021" rx="0.830696" ry="0.799929" transform="rotate(-23.9035 24.7047 11.1021)" fill="#F4F4F4"/>
<ellipse cx="21.7013" cy="17.5579" rx="0.884615" ry="0.851852" transform="rotate(-23.9035 21.7013 17.5579)" fill="#F4F4F4"/>
<ellipse cx="26.742" cy="24.6985" rx="0.830486" ry="0.799728" transform="rotate(-23.9035 26.742 24.6985)" fill="#F4F4F4"/>
<ellipse cx="11.5328" cy="22.9961" rx="0.884615" ry="0.851852" transform="rotate(-23.9035 11.5328 22.9961)" fill="#F4F4F4"/>
<path d="M14.3222 12.4423C15.0252 14.0285 14.2638 15.9218 12.5952 16.6614C10.9266 17.4009 9.01243 16.6934 8.30942 15.1072C7.60642 13.5211 8.36786 11.6277 10.0365 10.8882C11.7051 10.1486 13.6192 10.8561 14.3222 12.4423Z" fill="url(#paint11_linear_201_110)" stroke="white" stroke-width="0.5"/>
<ellipse cx="9.35313" cy="13.7132" rx="0.884615" ry="0.851852" transform="rotate(-23.9035 9.35313 13.7132)" fill="#F4F4F4"/>
<defs>
<linearGradient id="paint0_linear_201_110" x1="23.7738" y1="15.3488" x2="28.2968" y2="20.2202" gradientUnits="userSpaceOnUse">
<stop offset="0.271875" stop-color="#3EAD3A"/>
<stop offset="1" stop-color="#017AAF"/>
</linearGradient>
<linearGradient id="paint1_linear_201_110" x1="18.2737" y1="23.8489" x2="21.7835" y2="30.413" gradientUnits="userSpaceOnUse">
<stop offset="0.271875" stop-color="#3EAD3A"/>
<stop offset="1" stop-color="#017AAF"/>
</linearGradient>
<linearGradient id="paint2_linear_201_110" x1="13.2737" y1="21.8489" x2="15.7289" y2="28.5932" gradientUnits="userSpaceOnUse">
<stop offset="0.271875" stop-color="#3EAD3A"/>
<stop offset="1" stop-color="#017AAF"/>
</linearGradient>
<linearGradient id="paint3_linear_201_110" x1="21.2741" y1="19.8488" x2="27.6702" y2="26.7881" gradientUnits="userSpaceOnUse">
<stop offset="0.271875" stop-color="#3EAD3A"/>
<stop offset="1" stop-color="#017AAF"/>
</linearGradient>
<linearGradient id="paint4_linear_201_110" x1="13.7736" y1="16.3491" x2="17.1032" y2="21.8585" gradientUnits="userSpaceOnUse">
<stop offset="0.271875" stop-color="#3EAD3A"/>
<stop offset="1" stop-color="#017AAF"/>
</linearGradient>
<linearGradient id="paint5_linear_201_110" x1="7.77394" y1="16.3488" x2="12.616" y2="21.8169" gradientUnits="userSpaceOnUse">
<stop offset="0.271875" stop-color="#3EAD3A"/>
<stop offset="1" stop-color="#017AAF"/>
</linearGradient>
<linearGradient id="paint6_linear_201_110" x1="12.7737" y1="7.34889" x2="17.1433" y2="17.6737" gradientUnits="userSpaceOnUse">
<stop offset="0.271875" stop-color="#3EAD3A"/>
<stop offset="1" stop-color="#017AAF"/>
</linearGradient>
<linearGradient id="paint7_linear_201_110" x1="19.2739" y1="9.84903" x2="23.6995" y2="16.6908" gradientUnits="userSpaceOnUse">
<stop offset="0.271875" stop-color="#3EAD3A"/>
<stop offset="1" stop-color="#017AAF"/>
</linearGradient>
<linearGradient id="paint8_linear_201_110" x1="19.7737" y1="16.8489" x2="23.1032" y2="22.3584" gradientUnits="userSpaceOnUse">
<stop offset="0.271875" stop-color="#3EAD3A"/>
<stop offset="1" stop-color="#017AAF"/>
</linearGradient>
<linearGradient id="paint9_linear_201_110" x1="17.274" y1="21.3488" x2="20.6035" y2="26.8584" gradientUnits="userSpaceOnUse">
<stop offset="0.271875" stop-color="#3EAD3A"/>
<stop offset="1" stop-color="#017AAF"/>
</linearGradient>
<linearGradient id="paint10_linear_201_110" x1="10.2738" y1="21.349" x2="14.0613" y2="26.9973" gradientUnits="userSpaceOnUse">
<stop offset="0.271875" stop-color="#3EAD3A"/>
<stop offset="1" stop-color="#017AAF"/>
</linearGradient>
<linearGradient id="paint11_linear_201_110" x1="8.77425" y1="11.8489" x2="11.7847" y2="16.7617" gradientUnits="userSpaceOnUse">
<stop offset="0.271875" stop-color="#3EAD3A"/>
<stop offset="1" stop-color="#017AAF"/>
</linearGradient>
</defs>
</svg>
