<svg width="48" height="48" viewBox="0 0 48 48" fill="none" xmlns="http://www.w3.org/2000/svg">
    <g clip-path="url(#di1huago0a)" fill="#fff">
        <path d="M31.5 21.71 24 17.424l-7.5 4.286v8.58l7.5 4.286 7.5-4.286v-8.58zm-1 8L24 33.424l-6.5-3.714v-7.42l6.5-3.714 6.5 3.714v7.42z"/>
        <path d="m18 19 .811-.541-1.311-.749v-7.42L24 6.576l6.5 3.714v7.42l-1.311.749L30 19h.258l1.242-.71V9.71L24 5.424 16.5 9.71v8.58l1.242.71H18zM34 24.424l-1 .572v1.152l1-.572 6.5 3.714v7.42L34 40.424l-6.5-3.714v-2.567l-1 .571v2.576l7.5 4.286 7.5-4.286v-8.58L34 24.424zM20.5 36.71 14 40.424 7.5 36.71v-7.42l6.5-3.714 1 .572v-1.152l-1-.572-7.5 4.286v8.58l7.5 4.286 7.5-4.286v-2.576l-1-.57v2.566zM21.372 23.975 19.797 28h.741l.318-.868h1.634l.32.868h.782l-1.575-4.025h-.645zm-.298 2.559.597-1.633.6 1.633h-1.197zM24.73 26.631h.764c.461 0 .824-.11 1.093-.333.268-.222.402-.537.402-.943v-.115c0-.264-.06-.491-.18-.678a1.178 1.178 0 0 0-.518-.435 1.93 1.93 0 0 0-.797-.152h-1.488V28h.724v-1.369zm0-2.035h.747c.234 0 .424.052.57.155.145.104.218.263.218.477v.144c0 .223-.073.384-.218.483-.146.1-.336.15-.57.15h-.747v-1.41zM28.203 23.975h-.724V28h.724v-4.025z"/>
    </g>
    <defs>
        <clipPath id="di1huago0a">
            <path fill="#fff" d="M0 0h48v48H0z"/>
        </clipPath>
    </defs>
</svg>
