<svg width="48" height="48" viewBox="0 0 48 48" fill="none" xmlns="http://www.w3.org/2000/svg">
    <g clip-path="url(#7fngber6ma)">
        <path d="M33.5 22.5v-5.95C33.5 11.01 29.238 6.5 24 6.5s-9.5 4.509-9.5 10.05v5.95h-3V35l1.724 6.5h21.552l1.707-6.37.017-12.63h-3zm-18-5.95c0-4.99 3.813-9.05 8.5-9.05 4.687 0 8.5 4.06 8.5 9.05v5.95h-1v-5.95c0-4.439-3.364-8.05-7.5-8.05s-7.5 3.611-7.5 8.05v5.95h-1v-5.95zm15 5.95h-13v-5.95c0-3.887 2.916-7.05 6.5-7.05s6.5 3.163 6.5 7.05v5.95zm5 12.434L34.008 40.5H13.992L12.5 34.934V23.5h23v11.434zM26.5 30c0-1.378-1.122-2.5-2.5-2.5a2.503 2.503 0 0 0-2.5 2.5c0 .825.398 1.574 1.06 2.037l-.936 3.463h4.75l-.923-3.471A2.474 2.474 0 0 0 26.5 30zm-1.848 1.344-.37.18.79 2.976H22.93l.803-2.972-.376-.18A1.485 1.485 0 0 1 22.5 30c0-.827.673-1.5 1.5-1.5s1.5.673 1.5 1.5a1.49 1.49 0 0 1-.848 1.344z" fill="#fff"/>
    </g>
    <defs>
        <clipPath id="7fngber6ma">
            <path fill="#fff" d="M0 0h48v48H0z"/>
        </clipPath>
    </defs>
</svg>
