<svg width="48" height="48" viewBox="0 0 48 48" fill="none" xmlns="http://www.w3.org/2000/svg">
    <g clip-path="url(#re2iccl2ea)">
        <path d="m38.5 20.293-.002-7.583L31 8.424l-3.5 2.002L24 8.424l-14.5 8.29V31.29L24 39.576l14.5-8.283v-7.58l-2.992-1.711 2.992-1.709zm-5.008 1.708L31.5 23.139v-1.844l.024-.014-.024-.042V17.29l5.998-3.424.002 5.847L33.492 22zM24.5 31.139V25.29l6-3.424v5.845l-6 3.428zm-14-13.273 6 3.427v5.844l-6-3.428v-5.843zM24 24.424l-5.99-3.421 5.986-3.425 5.996 3.426L24 24.424zm6.5-7.134v2.853l-6-3.429v-2.848l6 3.424zm-13.498 3.138-5.994-3.424 5.99-3.424 5.99 3.422-5.986 3.426zm.498 1.436 6 3.427v5.845l-6-3.428v-5.844zm19.495-8.862L31 16.424l-5.992-3.42 2.492-1.426L31 9.576l5.995 3.426zm-10.502-2L23.5 12.714v3.43l-5.494-3.14L24 9.575l2.493 1.426zM10.5 24.862l13 7.425v5.852l-13-7.429v-5.849zm14 13.277V32.29l13-7.426v5.849l-13 7.426zm12.492-14.136L31.5 27.14v-2.85l3-1.712 2.492 1.425z" fill="#fff"/>
    </g>
    <defs>
        <clipPath id="re2iccl2ea">
            <path fill="#fff" d="M0 0h48v48H0z"/>
        </clipPath>
    </defs>
</svg>
