<svg width="92" height="92" viewBox="0 0 92 92" fill="none" xmlns="http://www.w3.org/2000/svg">
<g clip-path="url(#clip0_9_1955)" filter="url(#filter0_d_9_1955)">
<g filter="url(#filter1_d_9_1955)">
<path d="M31.2413 37.7583C27.5996 37.7583 24.533 34.6916 24.533 31.05C24.533 29.1333 23.958 27.4083 22.808 26.0667C22.4246 25.4917 22.0413 25.1083 21.4663 24.725C19.933 23.575 18.208 23 16.483 23C12.8413 23 9.77469 19.9333 9.77469 16.2917C9.77469 12.65 12.8413 9.58337 16.483 9.58337C20.1247 9.58337 23.1913 12.65 23.1913 16.2917C23.1913 18.2083 23.7663 19.9333 24.9163 21.275C25.2996 21.85 25.683 22.2333 26.258 22.6167C27.7913 23.7667 29.5163 24.3417 31.2413 24.3417C34.8829 24.3417 37.9496 27.4083 37.9496 31.05C37.9496 34.6916 34.8829 37.7583 31.2413 37.7583ZM16.2913 10.925C13.4163 10.925 11.1164 13.225 11.1164 16.1C11.1164 18.975 13.4163 21.275 16.2913 21.275C18.3997 21.275 20.508 22.0417 22.233 23.3833C22.808 23.7667 23.383 24.3417 23.7663 24.9167C25.108 26.6416 25.8746 28.75 25.8746 30.8583C25.8746 33.7333 28.1746 36.0333 31.0496 36.0333C33.9246 36.0333 36.2246 33.7333 36.2246 30.8583C36.2246 27.9833 33.9246 25.6833 31.0496 25.6833C28.9413 25.6833 26.833 24.9167 25.108 23.575C24.533 23.1917 23.958 22.6167 23.5746 22.0417C22.233 20.3167 21.4663 18.2083 21.4663 16.1C21.4663 13.225 19.1663 10.925 16.2913 10.925Z" fill="white"/>
<path d="M46 37.7583C42.3583 37.7583 39.2916 34.6916 39.2916 31.05C39.2916 29.1333 38.7166 27.4083 37.5666 26.0667C37.1833 25.4917 36.8 25.1083 36.225 24.725C34.6917 23.575 32.9667 23 31.2417 23C27.6 23 24.5334 19.9333 24.5334 16.2917C24.5334 12.65 27.6 9.58337 31.2417 9.58337C34.8833 9.58337 37.95 12.65 37.95 16.2917C37.95 18.2083 38.525 19.9333 39.675 21.275C40.0583 21.85 40.4416 22.2333 41.0166 22.6167C43.8916 24.9167 48.2999 24.9167 51.1749 22.6167C51.7499 22.2333 52.1333 21.85 52.5166 21.275C53.6666 19.7417 54.2416 18.0167 54.2416 16.2917C54.2416 12.65 57.3082 9.58337 60.9499 9.58337C64.5916 9.58337 67.6582 12.65 67.6582 16.2917C67.6582 19.9333 64.5916 23 60.9499 23C59.0332 23 57.3082 23.575 55.9666 24.725C55.3916 25.1083 55.0083 25.4917 54.6249 26.0667C53.4749 27.6 52.8999 29.325 52.8999 31.05C52.7083 34.6916 49.6416 37.7583 46 37.7583ZM31.2417 10.925C28.3667 10.925 26.0667 13.225 26.0667 16.1C26.0667 18.975 28.3667 21.275 31.2417 21.275C33.35 21.275 35.4583 22.0417 37.1833 23.3833C37.7583 23.7667 38.3333 24.3417 38.7166 24.9167C40.0583 26.6416 40.825 28.75 40.825 30.8583C40.825 33.7333 43.125 36.0333 46 36.0333C48.8749 36.0333 51.1749 33.7333 51.1749 30.8583C51.1749 28.75 51.9416 26.6416 53.2833 24.9167C53.6666 24.3417 54.2416 23.7667 54.8166 23.3833C56.5416 22.0417 58.6499 21.275 60.7582 21.275C63.6332 21.275 65.9332 18.975 65.9332 16.1C65.9332 13.225 63.6332 10.925 60.7582 10.925C57.8832 10.925 55.5833 13.225 55.5833 16.1C55.5833 18.2083 54.8166 20.3167 53.4749 22.0417C53.0916 22.6167 52.5166 23.1917 51.9416 23.575C48.4916 26.2583 43.3166 26.2583 40.0583 23.575C39.4833 23.1917 38.9083 22.6167 38.525 22.0417C37.1833 20.3167 36.4167 18.2083 36.4167 16.1C36.4167 13.225 34.1167 10.925 31.2417 10.925Z" fill="white"/>
<path d="M16.2916 67.4665C12.65 67.4665 9.58333 64.3999 9.58333 60.7582C9.58333 57.1165 12.65 54.0499 16.2916 54.0499C18.2083 54.0499 19.9333 53.4749 21.275 52.3249C21.85 51.9416 22.2333 51.5582 22.6166 50.9832C23.7666 49.4499 24.3416 47.7249 24.3416 45.9999C24.3416 44.2749 23.7666 42.3583 22.6166 41.0166C22.2333 40.4416 21.85 40.0583 21.275 39.6749C19.7416 38.5249 18.0166 37.9499 16.2916 37.9499C12.65 37.9499 9.58333 34.8833 9.58333 31.2416C9.58333 27.6 12.65 24.5333 16.2916 24.5333C19.9333 24.5333 22.9999 27.6 22.9999 31.2416C22.9999 33.1583 23.5749 34.8833 24.7249 36.225C25.1083 36.7999 25.4916 37.1833 26.0666 37.5666C27.5999 38.7166 29.3249 39.2916 31.2416 39.2916C34.8832 39.2916 37.9499 42.3583 37.9499 45.9999C37.9499 49.6416 34.8832 52.7082 31.2416 52.7082C29.3249 52.7082 27.5999 53.2832 26.2583 54.4332C25.6833 54.8166 25.2999 55.1999 24.9166 55.7749C23.7666 57.3082 23.1916 59.0332 23.1916 60.7582C22.9999 64.3999 19.9333 67.4665 16.2916 67.4665ZM16.2916 25.6833C13.4166 25.6833 11.1167 27.9833 11.1167 30.8583C11.1167 33.7333 13.4166 36.0333 16.2916 36.0333C18.4 36.0333 20.5083 36.7999 22.2333 38.1416C22.8083 38.5249 23.3833 39.0999 23.7666 39.6749C25.1083 41.3999 25.8749 43.5083 25.8749 45.6166C25.8749 47.7249 25.1083 49.8332 23.7666 51.5582C23.3833 52.1332 22.8083 52.7082 22.2333 53.0916C20.5083 54.4332 18.4 55.1999 16.2916 55.1999C13.4166 55.1999 11.1167 57.4999 11.1167 60.3749C11.1167 63.2499 13.4166 65.5498 16.2916 65.5498C19.1666 65.5498 21.4666 63.2499 21.4666 60.3749C21.4666 58.2665 22.2333 56.1582 23.5749 54.4332C23.9583 53.8582 24.5333 53.2832 25.1083 52.8999C26.8333 51.5582 28.9416 50.7916 31.0499 50.7916C33.9249 50.7916 36.2249 48.4916 36.2249 45.6166C36.2249 42.7416 33.9249 40.4416 31.0499 40.4416C28.9416 40.4416 26.8333 39.6749 25.1083 38.3333C24.5333 37.7583 23.9583 37.3749 23.5749 36.7999C22.2333 35.075 21.4666 32.9666 21.4666 30.8583C21.4666 28.175 19.1666 25.6833 16.2916 25.6833Z" fill="white"/>
<path d="M60.7577 37.7583C57.116 37.7583 54.0494 34.6916 54.0494 31.05C54.0494 27.4083 57.116 24.3417 60.7577 24.3417C62.6744 24.3417 64.3994 23.7667 65.741 22.6167C66.316 22.2333 66.6993 21.85 67.0827 21.275C68.2327 19.7417 68.8077 18.0167 68.8077 16.2917C68.8077 12.65 71.8743 9.58337 75.516 9.58337C79.1576 9.58337 82.2243 12.65 82.2243 16.2917C82.2243 19.9333 79.1576 23 75.516 23C73.5993 23 71.8743 23.575 70.5327 24.725C70.1493 25.1083 69.5743 25.4917 69.191 26.0667C68.041 27.6 67.466 29.325 67.466 31.05C67.6577 34.6916 64.591 37.7583 60.7577 37.7583ZM75.7076 10.925C72.8327 10.925 70.5327 13.225 70.5327 16.1C70.5327 18.2083 69.766 20.3167 68.4243 22.0417C68.041 22.6167 67.466 23.1917 66.891 23.575C65.166 24.9167 63.0577 25.6833 60.9494 25.6833C58.0744 25.6833 55.7744 27.9833 55.7744 30.8583C55.7744 33.7333 58.0744 36.0333 60.9494 36.0333C63.8244 36.0333 66.1243 33.7333 66.1243 30.8583C66.1243 28.75 66.891 26.6416 68.2327 24.9167C68.8077 24.3417 69.191 23.7667 69.766 23.3833C71.491 22.0417 73.5993 21.275 75.7076 21.275C78.5826 21.275 80.8826 18.975 80.8826 16.1C80.8826 13.225 78.5826 10.925 75.7076 10.925Z" fill="white"/>
<path d="M16.2916 82.2248C12.65 82.2248 9.58333 79.1582 9.58333 75.5165C9.58333 71.8749 12.65 68.8082 16.2916 68.8082C18.2083 68.8082 19.9333 68.2332 21.275 67.0832C21.85 66.6999 22.2333 66.3166 22.6166 65.7416C23.7666 64.2082 24.3416 62.4832 24.3416 60.7582C24.3416 57.1166 27.4083 54.0499 31.0499 54.0499C34.6916 54.0499 37.7582 57.1166 37.7582 60.7582C37.7582 64.3999 34.6916 67.4665 31.0499 67.4665C29.1333 67.4665 27.4083 68.0415 26.0666 69.1915H25.8749C25.4916 69.5749 24.9166 69.9582 24.7249 70.5332C23.5749 72.0665 22.9999 73.7915 22.9999 75.5165C22.9999 79.1582 19.9333 82.2248 16.2916 82.2248ZM31.2416 55.3916C28.3666 55.3916 26.0666 57.6916 26.0666 60.5666C26.0666 62.6749 25.2999 64.7832 23.9583 66.5082C23.5749 67.0832 23 67.6582 22.425 68.0415C20.7 69.3832 18.5916 70.1499 16.4833 70.1499C13.6083 70.1499 11.3083 72.4499 11.3083 75.3249C11.3083 78.1998 13.6083 80.4998 16.4833 80.4998C19.3583 80.4998 21.6583 78.1998 21.6583 75.3249C21.6583 73.2165 22.4249 71.1082 23.7666 69.3832C24.1499 68.8082 24.7249 68.2332 25.2999 67.8499C27.0249 66.5082 29.1333 65.7416 31.2416 65.7416C34.1166 65.7416 36.4166 63.4416 36.4166 60.5666C36.4166 57.6916 34.1166 55.3916 31.2416 55.3916Z" fill="white"/>
<path d="M75.7082 82.2248C72.0665 82.2248 68.9999 79.1582 68.9999 75.5165C68.9999 73.5998 68.4249 71.8748 67.2749 70.5332C66.8916 70.1499 66.5082 69.5749 65.9332 69.3832C64.3999 68.2332 62.6749 67.6582 60.9499 67.6582C57.3083 67.6582 54.2416 64.5915 54.2416 60.9499C54.2416 57.3082 57.3083 54.2416 60.9499 54.2416C64.5916 54.2416 67.6582 57.3082 67.6582 60.9499C67.6582 62.8665 68.2332 64.5915 69.3832 65.9332C69.7666 66.5082 70.1499 66.8915 70.7249 67.2749C72.2582 68.4249 73.9832 68.9999 75.7082 68.9999C79.3499 68.9999 82.4165 72.0665 82.4165 75.7082C82.4165 79.1582 79.3499 82.2248 75.7082 82.2248ZM60.7583 55.3916C57.8833 55.3916 55.5833 57.6916 55.5833 60.5666C55.5833 63.4415 57.8833 65.7415 60.7583 65.7415C62.8666 65.7415 64.9749 66.5082 66.6999 67.8499C67.2749 68.2332 67.8499 68.8082 68.2332 69.3832C69.5749 71.1082 70.3416 73.2165 70.3416 75.3248C70.3416 78.1998 72.6415 80.4998 75.5165 80.4998C78.3915 80.4998 80.6915 78.1998 80.6915 75.3248C80.6915 72.4498 78.3915 70.1499 75.5165 70.1499C73.4082 70.1499 71.2999 69.3832 69.5749 68.0415C68.9999 67.6582 68.4249 67.0832 68.0416 66.5082C66.6999 64.7832 65.9332 62.6749 65.9332 60.5666C66.1249 57.6916 63.6332 55.3916 60.7583 55.3916Z" fill="white"/>
<path d="M75.7082 67.4665C72.0665 67.4665 68.9999 64.3999 68.9999 60.7582C68.9999 58.8415 68.4249 57.1165 67.2749 55.7749C66.8916 55.3916 66.5082 54.8166 65.9332 54.4332C64.3999 53.2832 62.6749 52.7082 60.9499 52.7082C57.3083 52.7082 54.2416 49.6416 54.2416 45.9999C54.2416 42.3583 57.3083 39.2916 60.9499 39.2916C62.8666 39.2916 64.5916 38.7166 65.9332 37.5666C66.3166 37.1833 66.6999 36.8 67.0832 36.4166C68.2332 34.8833 68.8082 33.1583 68.8082 31.2416C68.8082 27.6 71.8749 24.5333 75.5165 24.5333C79.1582 24.5333 82.2248 27.6 82.2248 31.2416C82.2248 34.8833 79.1582 37.9499 75.5165 37.9499C73.5999 37.9499 71.8749 38.5249 70.5332 39.6749C69.9582 40.0583 69.5749 40.4416 69.1916 41.0166C68.0416 42.5499 67.4666 44.2749 67.4666 45.9999C67.4666 47.7249 68.0416 49.6416 69.1916 50.9832C69.5749 51.5582 69.9582 51.9416 70.5332 52.3249C72.0665 53.4749 73.7915 54.0499 75.5165 54.0499C79.1582 54.0499 82.2248 57.1165 82.2248 60.7582C82.4165 64.3999 79.3499 67.4665 75.7082 67.4665ZM75.7082 25.6833C72.8332 25.6833 70.5332 27.9833 70.5332 30.8583C70.5332 32.9666 69.7666 35.075 68.4249 36.7999C68.0416 37.3749 67.4666 37.9499 66.8916 38.3333C65.1666 39.6749 63.0582 40.4416 60.9499 40.4416C58.0749 40.4416 55.7749 42.7416 55.7749 45.6166C55.7749 48.4916 58.0749 50.7916 60.9499 50.7916C63.0582 50.7916 65.1666 51.5582 66.8916 52.8999C67.4666 53.2832 68.0416 53.8582 68.4249 54.4332C69.7666 56.1582 70.5332 58.2665 70.5332 60.3749C70.5332 63.2499 72.8332 65.5498 75.7082 65.5498C78.5832 65.5498 80.8832 63.2499 80.8832 60.3749C80.8832 57.4999 78.5832 55.1999 75.7082 55.1999C73.5999 55.1999 71.4916 54.4332 69.7666 53.0916C69.1916 52.7082 68.6166 52.1332 68.2332 51.5582C66.8916 49.8332 66.1249 47.7249 66.1249 45.6166C66.1249 43.5083 66.8916 41.3999 68.2332 39.6749C68.6166 39.0999 69.1916 38.5249 69.7666 38.1416C71.4916 36.7999 73.5999 36.0333 75.7082 36.0333C78.5832 36.0333 80.8832 33.7333 80.8832 30.8583C80.8832 28.175 78.5832 25.6833 75.7082 25.6833Z" fill="white"/>
<path d="M60.7581 82.2248C57.1165 82.2248 54.0498 79.1582 54.0498 75.5165C54.0498 73.5999 53.4748 71.8749 52.3248 70.5332C51.9415 69.9582 51.5581 69.5749 50.9831 69.1915C48.1081 66.8916 43.6998 66.8916 40.8248 69.1915C40.4415 69.5749 39.8665 69.9582 39.4832 70.5332C38.3332 72.0665 37.7582 73.7915 37.7582 75.5165C37.7582 79.1582 34.6915 82.2248 31.0499 82.2248C27.4082 82.2248 24.3416 79.1582 24.3416 75.5165C24.3416 71.8749 27.4082 68.8082 31.0499 68.8082C32.9665 68.8082 34.6915 68.2332 36.0332 67.0832H36.2249C36.6082 66.6999 36.9915 66.3166 37.3749 65.7416C38.5249 64.2082 39.0998 62.4832 39.0998 60.7582C39.0998 57.1166 42.1665 54.0499 45.8082 54.0499C49.4498 54.0499 52.5165 57.1166 52.5165 60.7582C52.5165 62.6749 53.0915 64.3999 54.2415 65.7416C54.6248 66.3166 55.0081 66.6999 55.5831 67.0832C57.1165 68.2332 58.8414 68.8082 60.5664 68.8082C64.2081 68.8082 67.2747 71.8749 67.2747 75.5165C67.6581 79.1582 64.5914 82.2248 60.7581 82.2248ZM45.9998 65.9332C48.1082 65.9332 50.4081 66.6999 51.9415 68.0415C52.5165 68.4249 53.0915 68.9999 53.4748 69.5749C54.8165 71.2999 55.5831 73.4082 55.5831 75.5165C55.5831 78.3915 57.8831 80.6915 60.7581 80.6915C63.6331 80.6915 65.9331 78.3915 65.9331 75.5165C65.9331 72.6415 63.6331 70.3415 60.7581 70.3415C58.6498 70.3415 56.5415 69.5749 54.8165 68.2332C54.2415 67.8499 53.6665 67.2749 53.2831 66.6999C51.9415 64.9749 51.1748 62.8666 51.1748 60.7582C51.1748 57.8832 48.8748 55.5833 45.9998 55.5833C43.1248 55.5833 40.8248 57.8832 40.8248 60.7582C40.8248 62.8666 40.0582 64.9749 38.7165 66.6999C38.3332 67.2749 37.7582 67.8499 37.1832 68.2332C35.4582 69.5749 33.3499 70.3415 31.2415 70.3415C28.3666 70.3415 26.0666 72.6415 26.0666 75.5165C26.0666 78.3915 28.3666 80.6915 31.2415 80.6915C34.1165 80.6915 36.4165 78.3915 36.4165 75.5165C36.4165 73.4082 37.1832 71.2999 38.5249 69.5749C39.0998 68.9999 39.4832 68.4249 40.0582 68.0415C41.5915 66.6999 43.8915 65.9332 45.9998 65.9332Z" fill="white"/>
</g>
</g>
<defs>
<filter id="filter0_d_9_1955" x="-2" y="-2" width="96" height="96" filterUnits="userSpaceOnUse" color-interpolation-filters="sRGB">
<feFlood flood-opacity="0" result="BackgroundImageFix"/>
<feColorMatrix in="SourceAlpha" type="matrix" values="0 0 0 0 0 0 0 0 0 0 0 0 0 0 0 0 0 0 127 0" result="hardAlpha"/>
<feOffset/>
<feGaussianBlur stdDeviation="1"/>
<feComposite in2="hardAlpha" operator="out"/>
<feColorMatrix type="matrix" values="0 0 0 0 0 0 0 0 0 0 0 0 0 0 0 0 0 0 1 0"/>
<feBlend mode="normal" in2="BackgroundImageFix" result="effect1_dropShadow_9_1955"/>
<feBlend mode="normal" in="SourceGraphic" in2="effect1_dropShadow_9_1955" result="shape"/>
</filter>
<filter id="filter1_d_9_1955" x="5.58333" y="5.58337" width="80.8332" height="80.6415" filterUnits="userSpaceOnUse" color-interpolation-filters="sRGB">
<feFlood flood-opacity="0" result="BackgroundImageFix"/>
<feColorMatrix in="SourceAlpha" type="matrix" values="0 0 0 0 0 0 0 0 0 0 0 0 0 0 0 0 0 0 127 0" result="hardAlpha"/>
<feOffset/>
<feGaussianBlur stdDeviation="2"/>
<feComposite in2="hardAlpha" operator="out"/>
<feColorMatrix type="matrix" values="0 0 0 0 0 0 0 0 0 0 0 0 0 0 0 0 0 0 0.2 0"/>
<feBlend mode="normal" in2="BackgroundImageFix" result="effect1_dropShadow_9_1955"/>
<feBlend mode="normal" in="SourceGraphic" in2="effect1_dropShadow_9_1955" result="shape"/>
</filter>
<clipPath id="clip0_9_1955">
<rect width="92" height="92" fill="white"/>
</clipPath>
</defs>
</svg>
