<svg width="100" height="100" viewBox="0 0 100 100" fill="none" xmlns="http://www.w3.org/2000/svg">
<g clip-path="url(#clip0_219_2550)">
<path d="M53.1247 36.4583V59.3749H57.5823L60.102 66.9331L65.1405 59.3749H88.5413V36.4583H53.1247ZM86.458 57.2916H64.0256L60.7307 62.2334L59.0837 57.2916H55.208V38.5416H86.458V57.2916ZM11.458 40.6249H34.8589L39.8973 48.1831L42.4171 40.6249H46.8747V17.7083H11.458V40.6249ZM13.5413 19.7916H44.7913V38.5416H40.9156L39.2687 43.4834L35.9738 38.5416H13.5413V19.7916ZM11.458 76.0416H34.8589L39.8973 83.5998L42.4171 76.0416H46.8747V53.1249H11.458V76.0416ZM13.5413 55.2083H44.7913V73.9582H40.9156L39.2687 78.9001L35.9738 73.9582H13.5413V55.2083ZM67.708 41.8039V54.0293L76.8775 47.9166L67.708 41.8039ZM69.7913 45.6959L73.1218 47.9166L69.7913 50.1373V45.6959ZM40.6247 28.1249H17.708V26.0416H40.6247V28.1249ZM17.708 30.2083H34.3747V32.2916H17.708V30.2083ZM35.4163 63.1103L31.2497 67.2769L24.9997 61.0269L16.235 69.7916H42.0977L35.4163 63.1103ZM21.2643 67.7083L24.9997 63.9729L28.735 67.7083H21.2643ZM35.4163 66.0562L37.0684 67.7083H33.7643L35.4163 66.0562ZM26.373 43.9229C26.1532 45.231 26.0413 46.5738 26.0413 47.9166C26.0413 48.589 26.0688 49.2553 26.1237 49.9145L26.2092 50.9521L24.133 51.124L24.0475 50.0854C23.9875 49.3713 23.958 48.647 23.958 47.9166C23.958 46.4588 24.0791 44.9991 24.3181 43.577L24.4911 42.5495L26.5459 42.8954C26.5459 42.8954 26.373 43.9228 26.373 43.9229ZM70.0711 61.0463L71.7618 62.2629L71.1534 63.1082C68.5116 66.7805 64.9492 69.7153 60.8507 71.5962C57.4368 73.1638 53.7859 73.9582 49.9997 73.9582H48.958V71.8749H49.9997C53.4838 71.8749 56.8417 71.1445 59.982 69.7031C63.7519 67.9727 67.0305 65.2709 69.4628 61.8916L70.0711 61.0463ZM49.9997 23.9583H48.958V21.8749H49.9997C53.7859 21.8749 57.4368 22.6694 60.8507 24.237C65.2574 26.2593 69.0091 29.4677 71.7007 33.5164L72.2775 34.3841L70.5421 35.5366L69.9653 34.6699C67.4893 30.9437 64.0368 27.9906 59.982 26.1301C56.8417 24.6886 53.4838 23.9582 49.9997 23.9583Z" fill="white"/>
</g>
<defs>
<clipPath id="clip0_219_2550">
<rect width="100" height="100" fill="white"/>
</clipPath>
</defs>
</svg>
