<svg width="100" height="100" viewBox="0 0 100 100" fill="none" xmlns="http://www.w3.org/2000/svg">
<g clip-path="url(#clip0_219_2559)">
<path d="M29.167 15.6248V17.7081H82.292V70.8331H84.3753V15.6248H29.167Z" fill="white"/>
<path d="M22.917 23.9581H76.042V77.0831H78.1253V21.8748H22.917V23.9581Z" fill="white"/>
<path d="M15.625 84.3748H71.875V28.1248H15.625V84.3748ZM17.7083 30.2081H69.7917V82.2914H17.7083V30.2081Z" fill="white"/>
<path d="M60.4166 51.0414C58.9436 51.0414 57.4747 51.2347 56.0516 51.6161L52.8939 52.4625L55.725 50.8278C56.9996 50.0913 58.1746 49.19 59.2183 48.1473C61.2487 46.1169 61.2487 42.8128 59.2183 40.7814C57.1868 38.751 53.8818 38.753 51.8524 40.7824C50.8107 41.8231 49.9094 42.999 49.1719 44.2746L47.5377 47.1057L48.3835 43.9491C48.765 42.526 48.9583 41.0571 48.9583 39.5831C48.9583 36.7114 46.6217 34.3748 43.75 34.3748C40.8782 34.3748 38.5416 36.7114 38.5416 39.5831C38.5416 41.0571 38.7349 42.526 39.1164 43.9491L39.9622 47.1057L38.328 44.2746C37.5905 42.999 36.6892 41.8231 35.6476 40.7814C33.6161 38.751 30.3111 38.753 28.2816 40.7824C26.2512 42.8129 26.2512 46.1169 28.2816 48.1483C29.3254 49.19 30.5003 50.0913 31.7749 50.8278L34.606 52.4625L31.4484 51.6161C30.0252 51.2347 28.5563 51.0414 27.0833 51.0414C24.2116 51.0414 21.875 53.378 21.875 56.2497C21.875 59.1225 24.2116 61.4581 27.0833 61.4581C28.5563 61.4581 30.0252 61.2648 31.4484 60.8833L34.606 60.038L31.7749 61.6717C30.4993 62.4082 29.3243 63.3105 28.2816 64.3521C26.2512 66.3836 26.2512 69.6876 28.2816 71.7181C29.2969 72.7333 30.6305 73.2409 31.9641 73.2409C33.2987 73.2409 34.6324 72.7333 35.6476 71.7181C36.6892 70.6764 37.5905 69.5015 38.328 68.2248L39.9622 65.3938L39.1164 68.5513C38.7349 69.9745 38.5416 71.4424 38.5416 72.9164C38.5416 75.7891 40.8783 78.1247 43.75 78.1247C46.6217 78.1247 48.9583 75.7891 48.9583 72.9164C48.9583 71.4424 48.765 69.9745 48.3836 68.5513L47.5377 65.3948L49.1719 68.2248C49.9094 69.5014 50.8107 70.6764 51.8524 71.718C52.8676 72.7333 54.2012 73.2409 55.5348 73.2409C56.8695 73.2409 58.2031 72.7333 59.2183 71.718C61.2487 69.6876 61.2487 66.3836 59.2183 64.3521C58.1756 63.3105 57.0007 62.4082 55.7251 61.6717L52.8939 60.038L56.0516 60.8833C57.4747 61.2648 58.9436 61.458 60.4166 61.458C63.2883 61.458 65.625 59.1224 65.625 56.2497C65.625 53.378 63.2883 51.0414 60.4166 51.0414ZM50.9765 45.3173C51.6224 44.1983 52.4128 43.1679 53.3253 42.2554C54.544 41.0377 56.5266 41.0357 57.7453 42.2554C58.9629 43.473 58.9629 45.4567 57.7453 46.6743C56.8308 47.5878 55.8003 48.3782 54.6833 49.0242L47.7898 53.0037C47.5538 52.7107 47.2897 52.4462 46.9966 52.2102L50.9765 45.3173ZM43.7499 59.3747C42.0267 59.3747 40.6249 57.973 40.6249 56.2497C40.6249 54.5265 42.0267 53.1247 43.7499 53.1247C45.4731 53.1247 46.8749 54.5265 46.8749 56.2497C46.8749 57.973 45.4731 59.3747 43.7499 59.3747ZM43.7499 36.4581C45.4731 36.4581 46.8749 37.8598 46.8749 39.5831C46.8749 40.875 46.705 42.1628 46.3714 43.41L44.3113 51.0984C44.1244 51.078 43.9422 51.0414 43.7499 51.0414C43.5577 51.0414 43.3754 51.078 43.1885 51.0984L41.1285 43.41C40.7948 42.1628 40.6249 40.875 40.6249 39.5831C40.6249 37.8598 42.0267 36.4581 43.7499 36.4581ZM29.7546 46.6743C28.5369 45.4567 28.5369 43.473 29.7546 42.2554C30.9722 41.0378 32.9548 41.0357 34.1745 42.2554C35.087 43.1679 35.8774 44.1984 36.5234 45.3163L40.5032 52.2102C40.2101 52.4462 39.946 52.7107 39.71 53.0037L32.8165 49.0242C31.6995 48.3782 30.6691 47.5878 29.7546 46.6743ZM30.9091 58.8712C29.662 59.2059 28.3741 59.3747 27.0832 59.3747C25.36 59.3747 23.9582 57.973 23.9582 56.2497C23.9582 54.5265 25.36 53.1247 27.0832 53.1247C28.3741 53.1247 29.662 53.2946 30.9091 53.6283L38.5983 55.6892C38.578 55.8754 38.5416 56.0575 38.5416 56.2497C38.5416 56.442 38.578 56.6241 38.5983 56.8113C38.5983 56.8113 30.9091 58.8712 30.9091 58.8712ZM36.5234 67.1832C35.8774 68.3021 35.087 69.3316 34.1745 70.2451C32.9569 71.4628 30.9743 71.4638 29.7546 70.2451C28.5369 69.0264 28.5369 67.0438 29.7546 65.8262C30.6681 64.9127 31.6985 64.1213 32.8165 63.4763L39.71 59.4968C39.946 59.7898 40.2101 60.0543 40.5033 60.2903L36.5234 67.1832ZM43.7499 76.0414C42.0267 76.0414 40.6249 74.6396 40.6249 72.9164C40.6249 71.6245 40.7948 70.3377 41.1285 69.0905L43.1885 61.4011C43.3754 61.4214 43.5577 61.458 43.7499 61.458C43.9422 61.458 44.1244 61.4214 44.3113 61.4011L46.3714 69.0905C46.705 70.3376 46.8749 71.6245 46.8749 72.9164C46.8749 74.6396 45.4731 76.0414 43.7499 76.0414ZM57.7453 65.8251C58.9629 67.0438 58.9629 69.0264 57.7453 70.2451C56.5266 71.4627 54.544 71.4638 53.3253 70.2451C52.4128 69.3316 51.6224 68.3021 50.9765 67.1831L46.9966 60.2903C47.2897 60.0543 47.5538 59.7898 47.7898 59.4968L54.6834 63.4763C55.8013 64.1212 56.8318 64.9127 57.7453 65.8251ZM60.4166 59.3747C59.1257 59.3747 57.8379 59.2059 56.5907 58.8712L48.9015 56.8113C48.9219 56.6241 48.9582 56.442 48.9582 56.2497C48.9582 56.0575 48.9219 55.8754 48.9015 55.6892L56.5907 53.6283C57.8378 53.2946 59.1257 53.1247 60.4166 53.1247C62.1398 53.1247 63.5416 54.5265 63.5416 56.2497C63.5416 57.973 62.1398 59.3747 60.4166 59.3747Z" fill="white"/>
</g>
<defs>
<clipPath id="clip0_219_2559">
<rect width="100" height="100" fill="white"/>
</clipPath>
</defs>
</svg>
