<svg width="100" height="100" viewBox="0 0 100 100" fill="none" xmlns="http://www.w3.org/2000/svg">
<g clip-path="url(#clip0_219_2556)">
<path d="M86.4577 50.0001C86.4577 63.0545 79.5389 74.4945 69.198 80.9358L68.6054 78.8616C78.0781 72.7336 84.3743 62.0972 84.3743 50.0001C84.3743 31.0456 68.9538 15.6251 49.9993 15.6251C31.0449 15.6251 15.6243 31.0456 15.6243 50.0001C15.6243 62.2692 22.1058 73.0266 31.8037 79.1108L31.2112 81.185C20.6435 74.7936 13.541 63.2254 13.541 50.0001C13.541 29.8971 29.8964 13.5417 49.9993 13.5417C70.1023 13.5417 86.4577 29.8971 86.4577 50.0001ZM49.9993 23.9584C35.6398 23.9584 23.9577 35.6405 23.9577 50.0001C23.9577 58.4229 27.9952 65.9028 34.2167 70.6656L34.8281 68.5253C29.4682 64.1277 26.041 57.4576 26.041 50.0001C26.041 36.79 36.7883 26.0417 49.9994 26.0417C63.2104 26.0417 73.9577 36.79 73.9577 50.0001C73.9577 57.2734 70.6882 63.7879 65.5552 68.1855L66.1788 70.3695C72.1775 65.5946 76.0411 58.2459 76.0411 50.0001C76.0411 35.6405 64.3589 23.9584 49.9993 23.9584ZM40.6243 58.3334V43.7501C40.6243 38.5804 44.8297 34.3751 49.9993 34.3751C55.169 34.3751 59.3743 38.5804 59.3743 43.7501V58.3334C59.3743 63.5031 55.169 67.7084 50.0004 67.7084C44.8307 67.7084 40.6243 63.5031 40.6243 58.3334ZM42.7077 58.3334C42.7077 62.3536 45.9792 65.6251 49.9993 65.6251C54.0195 65.6251 57.291 62.3536 57.291 58.3334V43.7501C57.291 39.7299 54.0206 36.4584 50.0004 36.4584C45.9802 36.4584 42.7077 39.7299 42.7077 43.7501V58.3334ZM61.4577 58.3334C61.4577 64.6516 56.3175 69.7918 49.9993 69.7918C43.6812 69.7918 38.541 64.6516 38.541 58.3334V53.1251H36.4577V58.3334C36.4577 65.4491 41.9773 71.2871 48.9577 71.8222V82.2918H38.541V84.3751H61.4577V82.2918H51.041V71.8222C58.0214 71.2871 63.541 65.4491 63.541 58.3334V53.1251H61.4577V58.3334Z" fill="white"/>
</g>
<defs>
<clipPath id="clip0_219_2556">
<rect width="100" height="100" fill="white"/>
</clipPath>
</defs>
</svg>
