<?xml version="1.0" encoding="UTF-8"?>
<svg id="Artwork" xmlns="http://www.w3.org/2000/svg" viewBox="0 0 362.60444 216">
  <defs>
    <style>
      .cls-1 {
        fill: #fff;
      }

      .cls-2 {
        fill: #76b900;
      }
    </style>
  </defs>
  <g id="Studio">
    <g id="NVIDIA_Logo" data-name="NVIDIA Logo">
      <path id="Eye_Mark" data-name="Eye Mark" class="cls-2" d="M72.77358,59.77724v-4.17551c.4054-.02889,.81484-.05049,1.23207-.06356,11.42029-.35895,18.9125,9.81269,18.9125,9.81269,0,0-8.09203,11.23945-16.76836,11.23945-1.24966,0-2.36794-.20145-3.37621-.5398v-12.66168c4.44603,.53704,5.33975,2.50082,8.0134,6.95617l5.94465-5.01222s-4.33928-5.69142-11.65441-5.69142c-.79601,0-1.55663,.05625-2.30364,.13589m0-13.79328v6.23701c.40993-.03241,.82037-.05852,1.23207-.07333,15.88165-.53504,26.22812,13.02464,26.22812,13.02464,0,0-11.8845,14.4514-24.26532,14.4514-1.13438,0-2.19666-.10474-3.19487-.28134v3.85525c.85378,.10852,1.73771,.17231,2.66058,.17231,11.52202,0,19.85396-5.88359,27.92264-12.84779,1.33684,1.07107,6.81376,3.67666,7.94009,4.81881-7.67207,6.42189-25.55017,11.59813-35.68564,11.59813-.97663,0-1.91606-.05903-2.83767-.14744v5.41813h43.79225V45.98396h-43.79225Zm0,30.06654v3.29182c-10.65644-1.89999-13.6142-12.97741-13.6142-12.97741,0,0,5.11646-5.66907,13.6142-6.58767v3.61159l-.01659-.00175c-4.45909-.53555-7.94333,3.63093-7.94333,3.63093,0,0,1.95197,7.01393,7.95992,9.0325m-18.92708-10.16561s6.31589-9.3196,18.92708-10.28316v-3.38076c-13.96811,1.12106-26.06437,12.9513-26.06437,12.9513,0,0,6.85067,19.80599,26.06437,21.61932v-3.59402c-14.0995-1.7739-18.92708-17.31268-18.92708-17.31268Z"/>
      <path id="NVIDIA" class="cls-1" d="M195.44747,54.71883l.00305,30.34204h8.56893v-30.34152l-8.57197-.00052Zm-67.41037-.04123v30.38327h8.64539v-23.07042l6.69743,.00229c2.21865,0,3.7987,.55206,4.8678,1.6928,1.35545,1.4444,1.90866,3.77275,1.90866,8.03391v13.34141l8.37508-.00153,.00153-16.78505c0-11.98101-7.6371-13.5967-15.10829-13.5967h-15.3876m81.20788,.04225v30.34103h13.89879c7.40525,0,9.82215-1.23162,12.43607-3.9929,1.84783-1.93842,3.0415-6.19374,3.0415-10.84408,0-4.26471-1.01043-8.06954-2.7735-10.43885-3.1746-4.23698-7.74834-5.0652-14.57632-5.0652h-12.02655Zm8.50017,6.60658h3.68442c5.34517,0,8.80206,2.40036,8.80206,8.62845,0,6.22963-3.45689,8.62999-8.80206,8.62999h-3.68442v-17.25844Zm-34.65283-6.60658l-7.1516,24.04702-6.85282-24.04548-9.25023-.00154,9.78676,30.34103h12.35056l9.86365-30.34103h-8.74631Zm59.51658,30.34103h8.57044v-30.33949l-8.57247-.00154,.00203,30.34103Zm24.02208-30.33008l-11.96574,30.31963h8.44956l1.8931-5.3589h14.16096l1.79208,5.3589h9.17389l-12.05709-30.32216-11.44675,.00253Zm5.5625,5.53149l5.19093,14.20422h-10.54576l5.35484-14.20422Z"/>
    </g>
    <path class="cls-1" d="M106.66135,139.45374c2.79316,3.02432,4.19019,6.92666,4.19019,11.70703v1.03711c0,5.47295-1.97314,9.73477-5.91812,12.78721-3.94585,3.05332-9.49043,4.5791-16.63198,4.5791h-1.20938c-12.26909,0-20.13135-4.40684-23.58743-13.21963l8.29446-4.31982c1.26628,2.99619,3.13879,5.24268,5.61621,6.73945,2.47588,1.49854,5.67246,2.24648,9.59019,2.24648h1.03667c4.14756,0,7.34414-.73477,9.59062-2.20342,2.24648-1.46865,3.36973-3.61406,3.36973-6.43711v-.9501c0-2.36074-.72114-4.30488-2.16035-5.83154-1.44053-1.52578-3.68701-2.49082-6.73945-2.89512l-10.19487-1.55479c-11.11729-1.49678-16.67527-6.99873-16.67527-16.50234v-1.03711c0-3.39785,.90725-6.3501,2.72175-8.85586,1.81428-2.50576,4.34817-4.4499,7.60298-5.83154,3.25371-1.38252,7.0418-2.07422,11.36162-2.07422h1.20981c5.35649,0,9.90615,1.08018,13.65117,3.24053,3.7437,2.15947,6.42173,5.28486,8.0354,9.37441l-8.64053,3.71514c-1.95864-5.24092-6.33691-7.8627-13.13262-7.8627h-1.03667c-3.68701,0-6.59619,.74971-8.72622,2.24648-2.13179,1.49854-3.19702,3.48574-3.19702,5.96162v1.03711c0,4.2627,2.90786,6.85459,8.72622,7.77568l10.19531,1.46865c5.64434,.74971,9.86309,2.63496,12.65757,5.65928Zm39.95991-7.38721l1.1228-7.8627h-14.42856v-13.04648h-9.50405v13.04648h-9.33135v7.8627h9.33135v22.29082c0,4.66611,1.17993,8.25117,3.54243,10.75693,2.36074,2.50576,6.33516,3.75908,11.92324,3.75908h8.46694v-8.03584h-7.51685c-2.30449,0-4.03242-.53174-5.18379-1.59785-1.15312-1.06523-1.72793-2.83711-1.72793-5.31387v-21.85928h13.30576Zm38.1876,16.50234c0,2.88105-.50449,5.28574-1.51172,7.21406-1.00854,1.93096-2.30449,3.35654-3.88828,4.27764-1.58467,.92197-3.26953,1.38164-5.05415,1.38164h-.60513c-2.99531,0-5.22686-.96328-6.69551-2.89424-1.46909-1.9292-2.20342-4.7373-2.20342-8.42344v-25.9207h-9.50405v27.30234c0,5.87549,1.45415,10.35527,4.36333,13.43584,2.90786,3.08145,6.81064,4.62217,11.70703,4.62217h.77783c3.1667,0,5.90361-.69082,8.20811-2.07334,2.30273-1.38252,4.11724-3.25371,5.44307-5.61621v6.56631h8.46738v-44.23711h-9.50449v24.36504Zm51.4938-43.2h9.50405v63.07207h-8.38125v-6.56631c-1.44009,2.41875-3.36929,4.30664-5.78848,5.65928s-5.32837,2.03027-8.72666,2.03027h-.60469c-3.62856,0-6.85547-.83584-9.67676-2.50576-2.82305-1.66992-5.04053-4.13262-6.65244-7.38721-1.61367-3.25371-2.41963-7.24219-2.41963-11.96631v-2.9373c0-4.66611,.80596-8.61064,2.41963-11.83711,1.61191-3.22471,3.82939-5.6874,6.65244-7.38721,2.82129-1.69805,6.04819-2.54883,9.67676-2.54883h.60469c2.93774,0,5.54326,.56162,7.81963,1.68486,2.27461,1.12324,4.13218,2.72197,5.57271,4.79531v-24.10576Zm.08657,39.571c0-3.22471-.5335-5.84561-1.59873-7.86182-1.06611-2.01621-2.44863-3.4998-4.14712-4.4499-1.69937-.9501-3.52881-1.42559-5.48657-1.42559h-.69082c-3.28359,0-6.00513,1.09512-8.16504,3.28359-2.15991,2.18936-3.24009,5.61533-3.24009,10.28145v3.02344c0,4.66611,1.08018,8.10879,3.24009,10.32539,2.15991,2.21748,4.88145,3.32578,8.16504,3.32578h.69082c1.95776,0,3.78721-.47461,5.48657-1.42559,1.69849-.9501,3.08101-2.43281,4.14712-4.44902,1.06523-2.01621,1.59873-4.66611,1.59873-7.94883v-2.67891Zm21.08013,23.50107h9.50405v-44.23711h-9.50405v44.23711Zm-.17271-52.09893h9.84946v-9.93604h-9.84946v9.93604Zm61.51553,28.51172v2.85117c0,4.60898-.90703,8.55352-2.72109,11.83711-1.81494,3.28271-4.30664,5.77529-7.47378,7.47334-3.16846,1.69805-6.73901,2.54883-10.71343,2.54883h-.77783c-3.97441,0-7.53135-.85078-10.67036-2.54883-3.13989-1.69805-5.63071-4.19063-7.47378-7.47334-1.84395-3.28359-2.7646-7.22813-2.7646-11.83711v-2.76504c0-4.66523,.92065-8.62471,2.7646-11.8793,1.84307-3.25371,4.33389-5.74629,7.47378-7.47422,3.13901-1.72793,6.69595-2.59189,10.67036-2.59189h.77783c3.97441,0,7.54497,.86396,10.71343,2.59189,3.16714,1.72793,5.65884,4.22051,7.47378,7.47422,1.81406,3.25459,2.72109,7.18594,2.72109,11.79316Zm-9.50361-.17314c0-4.54922-1.09512-7.93389-3.28359-10.15137-2.18936-2.2166-4.92451-3.32666-8.20767-3.32666h-.69126c-3.22646,0-5.9335,1.11006-8.12153,3.32666-2.18979,2.21748-3.28315,5.60215-3.28315,10.15137v3.19746c0,4.55098,1.09336,7.94883,3.28315,10.19531,2.18804,2.24561,4.89507,3.36885,8.12153,3.36885h.69126c3.28315,0,6.01831-1.12324,8.20767-3.36885,2.18848-2.24648,3.28359-5.64434,3.28359-10.19531v-3.19746Z"/>
  </g>
</svg>